<?xml version="1.0" encoding="UTF-8"?>
<svg width="14px" height="14px" viewBox="0 0 14 14" version="1.1" xmlns="http://www.w3.org/2000/svg" xmlns:xlink="http://www.w3.org/1999/xlink">
    <title>More Icon</title>
    <desc>A simple more icon</desc>
    <defs>
        <path d="M7,4.66666667 C7.64166667,4.66666667 8.16666667,4.14166667 8.16666667,3.5 C8.16666667,2.85833333 7.64166667,2.33333333 7,2.33333333 C6.35833333,2.33333333 5.83333333,2.85833333 5.83333333,3.5 C5.83333333,4.14166667 6.35833333,4.66666667 7,4.66666667 L7,4.66666667 Z M7,5.83333333 C6.35833333,5.83333333 5.83333333,6.35833333 5.83333333,7 C5.83333333,7.64166667 6.35833333,8.16666667 7,8.16666667 C7.64166667,8.16666667 8.16666667,7.64166667 8.16666667,7 C8.16666667,6.35833333 7.64166667,5.83333333 7,5.83333333 L7,5.83333333 Z M7,9.33333333 C6.35833333,9.33333333 5.83333333,9.85833333 5.83333333,10.5 C5.83333333,11.1416667 6.35833333,11.6666667 7,11.6666667 C7.64166667,11.6666667 8.16666667,11.1416667 8.16666667,10.5 C8.16666667,9.85833333 7.64166667,9.33333333 7,9.33333333 L7,9.33333333 Z" id="path-1"></path>
        <rect id="path-3" x="0" y="0" width="29" height="29"></rect>
    </defs>
    <g id="Chrome" stroke="none" stroke-width="1" fill="none" fill-rule="evenodd">
        <g id="More-Icon" transform="translate(-70.000000, -89.000000)">
            <g id="more_vert" transform="translate(77.000000, 96.000000) rotate(90.000000) translate(-77.000000, -96.000000) translate(70.000000, 89.000000)">
                <mask id="mask-2" fill="white">
                    <use xlink:href="#path-1"></use>
                </mask>
                <g id="Mask"></g>
                <g id="Black" mask="url(#mask-2)">
                    <g transform="translate(-7.583333, -7.583333)">
                        <mask id="mask-4" fill="white">
                            <use xlink:href="#path-3"></use>
                        </mask>
                        <use id="White" stroke="none" fill="#000000" fill-rule="evenodd" xlink:href="#path-3"></use>
                    </g>
                </g>
            </g>
        </g>
    </g>
</svg>